<svg xmlns="http://www.w3.org/2000/svg" width="800" height="320" viewBox="0 0 800 320" font-family="system-ui,Segoe UI,Helvetica,sans-serif">
  <rect width="800" height="320" fill="#ffffff"/>
  <text x="28" y="40" font-size="18" font-weight="800" fill="#1a1a1a">regex-railroad</text>
  <text x="190" y="40" font-size="13" fill="#777">render any regex as a railroad diagram</text>
  <rect x="20" y="58" width="760" height="40" rx="8" fill="#0d1117"/>
  <text x="36" y="84" font-size="14" fill="#a5d6ff" font-family="SFMono-Regular,monospace">/^(?&lt;id&gt;[A-Z]{2}\d+)(-\w+)?$/</text>
  <g transform="translate(30,120) scale(0.9906291834002677)"><circle cx="20" cy="73" r="5" fill="#3fb950"/><line x1="20" y1="73" x2="40" y2="73" stroke="#888"/><g transform="translate(40,20)"><g transform="translate(0,36)"><g><rect x="0" y="0" width="115" height="34" rx="6" fill="#f6f6f6" stroke="#bbb"/><text x="57.5" y="21" text-anchor="middle" font-size="12" font-family="monospace">start of line</text></g></g><line x1="115" y1="53" x2="129" y2="53" stroke="#888"/><g transform="translate(129,11)"><rect x="0" y="0" width="200" height="84" rx="8" fill="none" stroke="#c0b0e0" stroke-dasharray="4 3"/><text x="8" y="13" font-size="10" fill="#7a5fb0" font-family="monospace">«id»</text><g transform="translate(10,22)"><g transform="translate(0,0)"><g transform="translate(12,0)"><g><rect x="0" y="0" width="59" height="34" rx="16" fill="#eef" stroke="#88a"/><text x="29.5" y="21" text-anchor="middle" font-size="12" font-family="monospace">[A-Z]</text></g></g><path d="M6,17 Q6,48 41.5,48 Q77,48 77,17" fill="none" stroke="#d09030" stroke-dasharray="3 2"/><text x="41.5" y="54" text-anchor="middle" font-size="10" fill="#b06f10" font-family="monospace">2×</text></g><line x1="83" y1="28" x2="97" y2="28" stroke="#888"/><g transform="translate(97,0)"><g transform="translate(12,0)"><g><rect x="0" y="0" width="59" height="34" rx="16" fill="#eef" stroke="#88a"/><text x="29.5" y="21" text-anchor="middle" font-size="12" font-family="monospace">digit</text></g></g><path d="M6,17 Q6,48 41.5,48 Q77,48 77,17" fill="none" stroke="#d09030" stroke-dasharray="3 2"/><text x="41.5" y="54" text-anchor="middle" font-size="10" fill="#b06f10" font-family="monospace">1+ times</text></g></g></g><line x1="329" y1="53" x2="343" y2="53" stroke="#888"/><g transform="translate(343,0)"><g transform="translate(12,0)"><rect x="0" y="0" width="185" height="84" rx="8" fill="none" stroke="#c0b0e0" stroke-dasharray="4 3"/><text x="8" y="13" font-size="10" fill="#7a5fb0" font-family="monospace">group</text><g transform="translate(10,22)"><g transform="translate(0,11)"><g><rect x="0" y="0" width="40" height="34" rx="6" fill="#fff" stroke="#888"/><text x="20" y="21" text-anchor="middle" font-size="12" font-family="monospace">-</text></g></g><line x1="40" y1="28" x2="54" y2="28" stroke="#888"/><g transform="translate(54,0)"><g transform="translate(12,0)"><g><rect x="0" y="0" width="87" height="34" rx="16" fill="#eef" stroke="#88a"/><text x="43.5" y="21" text-anchor="middle" font-size="12" font-family="monospace">word char</text></g></g><path d="M6,17 Q6,48 55.5,48 Q105,48 105,17" fill="none" stroke="#d09030" stroke-dasharray="3 2"/><text x="55.5" y="54" text-anchor="middle" font-size="10" fill="#b06f10" font-family="monospace">1+ times</text></g></g></g><path d="M6,42 Q6,98 104.5,98 Q203,98 203,42" fill="none" stroke="#d09030" stroke-dasharray="3 2"/><text x="104.5" y="104" text-anchor="middle" font-size="10" fill="#b06f10" font-family="monospace">optional</text></g><line x1="552" y1="53" x2="566" y2="53" stroke="#888"/><g transform="translate(566,36)"><g><rect x="0" y="0" width="101" height="34" rx="6" fill="#f6f6f6" stroke="#bbb"/><text x="50.5" y="21" text-anchor="middle" font-size="12" font-family="monospace">end of line</text></g></g></g><line x1="707" y1="73" x2="727" y2="73" stroke="#888"/><circle cx="727" cy="73" r="5" fill="#f85149"/></g>
  <text x="28" y="306" font-size="12.5" fill="#3a7a3a" font-family="SFMono-Regular,monospace">✓ 13 tests · groups · named captures · classes · quantifiers · alternation · anchors</text>
</svg>